<svg xmlns="http://www.w3.org/2000/svg" viewBox="0 0 50 50">
    <path
        d="M 25 0 C 23.253906 0 21.671875 0.226562 20.441406 0.636719 C 19.824219 0.84375 19.292969 1.085938 18.851562 1.433594 C 18.410156 1.785156 18 2.320312 18 3 C 18 3.679688 18.410156 4.214844 18.851562 4.566406 C 19.292969 4.914062 19.824219 5.15625 20.441406 5.363281 C 21.671875 5.773438 23.253906 6 25 6 C 26.746094 6 28.328125 5.773438 29.558594 5.363281 C 30.175781 5.15625 30.707031 4.914062 31.148438 4.566406 C 31.589844 4.214844 32 3.679688 32 3 C 32 2.320312 31.589844 1.785156 31.148438 1.433594 C 30.707031 1.085938 30.175781 0.84375 29.558594 0.636719 C 28.328125 0.226562 26.746094 0 25 0 Z M 25 2 C 26.566406 2 27.984375 2.222656 28.925781 2.535156 C 29.390625 2.691406 29.726562 2.871094 29.894531 3 C 29.726562 3.128906 29.390625 3.308594 28.925781 3.464844 C 27.984375 3.777344 26.566406 4 25 4 C 23.433594 4 22.015625 3.777344 21.074219 3.464844 C 20.609375 3.308594 20.273438 3.128906 20.105469 3 C 20.273438 2.871094 20.609375 2.691406 21.074219 2.535156 C 22.015625 2.222656 23.433594 2 25 2 Z M 9 4 C 6.105469 4 3.75 5.34375 2.238281 7.441406 C 0.726562 9.539062 0 12.339844 0 15.402344 C 0 25.1875 4.113281 35.226562 5.003906 49.066406 C 5.03125 49.539062 5.394531 49.929688 5.867188 49.992188 C 7.410156 50.199219 8.65625 49.730469 9.664062 48.980469 C 9.761719 48.949219 9.859375 48.90625 9.945312 48.851562 C 11.398438 48.75 12.75 48.109375 13.613281 46.78125 C 13.765625 46.707031 13.972656 46.628906 14.390625 46.308594 C 14.941406 45.886719 15.644531 45.210938 16.332031 44.179688 C 17.644531 42.210938 18.867188 38.941406 18.980469 33.734375 C 20.171875 33.980469 21.148438 33.910156 22 33.742188 L 22 45 C 22 45.15625 22.035156 45.308594 22.105469 45.449219 L 24.105469 49.449219 C 24.273438 49.785156 24.621094 50 25 50 C 25.378906 50 25.726562 49.785156 25.894531 49.449219 L 27.894531 45.449219 C 27.964844 45.308594 28 45.15625 28 45 L 28 33.738281 C 28.863281 33.921875 29.882812 33.972656 31.105469 33.722656 C 31.222656 38.480469 32.449219 41.726562 33.734375 43.777344 C 35.007812 45.820312 36.320312 46.679688 36.46875 46.777344 C 37.332031 48.105469 38.683594 48.75 40.136719 48.847656 C 40.222656 48.90625 40.316406 48.949219 40.414062 48.976562 C 41.421875 49.730469 42.671875 50.199219 44.214844 49.992188 C 44.6875 49.929688 45.050781 49.539062 45.078125 49.0625 C 45.96875 35.226562 50.082031 25.1875 50.082031 15.398438 C 50.082031 12.339844 49.355469 9.539062 47.84375 7.441406 C 46.332031 5.34375 43.976562 4 41.082031 4 C 37.96875 4 35.898438 6.34375 34.347656 8.394531 C 33.570312 9.421875 32.894531 10.414062 32.300781 11.089844 C 31.707031 11.765625 31.261719 12 31.082031 12 C 30.542969 11.996094 30.097656 12.425781 30.078125 12.964844 C 30.058594 13.503906 30.472656 13.960938 31.011719 13.996094 C 31.035156 14 31.058594 14 31.082031 14 C 32.945312 14 35.246094 16.066406 37.039062 18.519531 C 38.832031 20.972656 40.109375 23.59375 40.4375 24.253906 C 41.320312 26.015625 41.152344 27.570312 40.625 28.101562 C 40.578125 28.144531 40.105469 28.464844 39.464844 28.765625 C 38.824219 29.066406 37.988281 29.402344 37.066406 29.742188 C 35.230469 30.417969 33.046875 31.113281 31.257812 31.640625 C 29.984375 32.015625 29.226562 31.957031 28.40625 31.78125 C 28.398438 31.78125 28.390625 31.777344 28.382812 31.777344 C 28.792969 31.246094 29.027344 30.632812 29.117188 30 C 29.226562 29.996094 29.332031 29.972656 29.433594 29.9375 L 37.433594 26.9375 C 37.726562 26.828125 37.949219 26.589844 38.039062 26.289062 C 38.128906 25.992188 38.078125 25.671875 37.894531 25.417969 L 32.957031 18.503906 C 32.777344 18.179688 32.4375 17.980469 32.066406 17.988281 C 32.03125 17.988281 31.992188 17.988281 31.953125 17.996094 C 31.929688 17.996094 31.910156 18.003906 31.886719 18.007812 C 31.878906 18.007812 31.871094 18.011719 31.863281 18.011719 C 31.363281 18.121094 31.023438 18.589844 31.082031 19.101562 L 31.082031 27.183594 L 29.40625 27.8125 C 29.109375 27.398438 28.664062 26.882812 28 26.503906 L 28 23 C 28.359375 23.003906 28.695312 22.816406 28.878906 22.503906 C 29.058594 22.191406 29.058594 21.808594 28.878906 21.496094 C 28.695312 21.183594 28.359375 20.996094 28 21 L 26 21 L 26 17 C 26.003906 16.730469 25.898438 16.46875 25.707031 16.277344 C 25.515625 16.085938 25.253906 15.980469 24.984375 15.988281 C 24.433594 15.996094 23.992188 16.449219 24 17 L 24 21 L 22 21 C 21.640625 20.996094 21.304688 21.183594 21.121094 21.496094 C 20.941406 21.808594 20.941406 22.191406 21.121094 22.503906 C 21.304688 22.816406 21.640625 23.003906 22 23 L 22 27 C 22 27.015625 22 27.035156 22 27.050781 C 21.476562 27.359375 21.09375 27.671875 20.855469 27.878906 L 19 27.183594 L 19 19.019531 C 19 19.007812 19 18.992188 19 18.980469 C 19 18.957031 19 18.933594 18.996094 18.910156 C 18.996094 18.90625 18.996094 18.902344 18.996094 18.902344 C 18.992188 18.875 18.988281 18.847656 18.984375 18.820312 C 18.902344 18.332031 18.476562 17.980469 17.984375 17.988281 C 17.628906 17.992188 17.304688 18.1875 17.128906 18.496094 L 12.183594 25.417969 C 12.003906 25.671875 11.953125 25.992188 12.042969 26.289062 C 12.132812 26.589844 12.355469 26.828125 12.648438 26.9375 L 20.648438 29.9375 C 21.015625 30.074219 21.429688 29.984375 21.707031 29.707031 C 21.707031 29.707031 23.445312 28 26 28 C 26.132812 28 26.261719 28.023438 26.382812 28.050781 C 26.601562 28.113281 26.742188 28.226562 26.867188 28.390625 C 27.058594 28.636719 27.183594 29.046875 27.167969 29.476562 C 27.152344 29.902344 27 30.324219 26.777344 30.59375 C 26.554688 30.859375 26.304688 31.015625 25.832031 31.015625 C 24.160156 31.015625 23 31.449219 22.03125 31.699219 C 21.066406 31.945312 20.28125 32.070312 18.824219 31.640625 C 17.035156 31.113281 14.851562 30.417969 13.011719 29.742188 C 12.09375 29.402344 11.257812 29.066406 10.617188 28.765625 C 9.976562 28.464844 9.503906 28.144531 9.457031 28.101562 C 8.929688 27.570312 8.761719 26.015625 9.644531 24.253906 C 9.972656 23.589844 11.253906 20.972656 13.042969 18.519531 C 14.835938 16.066406 17.136719 14 19 14 C 19.359375 14.003906 19.695312 13.816406 19.878906 13.503906 C 20.058594 13.191406 20.058594 12.808594 19.878906 12.496094 C 19.695312 12.183594 19.359375 11.996094 19 12 C 18.820312 12 18.375 11.765625 17.78125 11.089844 C 17.1875 10.414062 16.511719 9.421875 15.734375 8.398438 C 14.183594 6.34375 12.113281 4 9 4 Z M 9 6 C 11.085938 6 12.667969 7.65625 14.140625 9.601562 C 14.875 10.578125 15.554688 11.585938 16.277344 12.410156 C 16.339844 12.480469 16.40625 12.546875 16.46875 12.613281 C 14.484375 13.558594 12.804688 15.457031 11.429688 17.339844 C 9.503906 19.972656 8.15625 22.753906 7.855469 23.355469 C 7.855469 23.359375 7.855469 23.359375 7.855469 23.359375 C 6.734375 25.597656 6.570312 28.042969 8.039062 29.511719 C 8.496094 29.96875 9.046875 30.238281 9.769531 30.574219 C 10.492188 30.914062 11.371094 31.265625 12.320312 31.617188 C 13.816406 32.167969 15.460938 32.695312 16.996094 33.167969 C 16.96875 38.40625 15.78125 41.402344 14.667969 43.070312 C 14.632812 43.121094 14.613281 43.121094 14.578125 43.171875 C 14.722656 41.402344 14.625 39.382812 13.972656 36.757812 C 13.882812 36.410156 13.621094 36.136719 13.277344 36.039062 C 12.933594 35.941406 12.5625 36.03125 12.304688 36.28125 C 12.046875 36.527344 11.941406 36.894531 12.027344 37.242188 C 13 41.125 12.867188 43.738281 12.261719 45.191406 C 11.839844 46.207031 11.210938 46.613281 10.460938 46.804688 C 10.648438 45.175781 11 40.859375 8.933594 35.351562 C 8.820312 35 8.527344 34.738281 8.164062 34.675781 C 7.800781 34.609375 7.433594 34.746094 7.203125 35.035156 C 6.972656 35.320312 6.917969 35.710938 7.066406 36.050781 C 9.238281 41.84375 8.519531 46.875 8.433594 47.441406 C 7.992188 47.78125 7.484375 47.945312 6.882812 47.976562 C 5.851562 34.339844 2 24.390625 2 15.402344 C 2 12.660156 2.671875 10.261719 3.863281 8.609375 C 5.050781 6.957031 6.695312 6 9 6 Z M 41.082031 6 C 43.386719 6 45.03125 6.957031 46.222656 8.609375 C 47.410156 10.261719 48.082031 12.660156 48.082031 15.402344 C 48.082031 24.390625 44.234375 34.339844 43.199219 47.976562 C 42.597656 47.945312 42.089844 47.78125 41.648438 47.441406 C 41.5625 46.871094 40.847656 41.839844 43.019531 36.050781 C 43.152344 35.714844 43.089844 35.335938 42.863281 35.054688 C 42.636719 34.773438 42.273438 34.640625 41.917969 34.699219 C 41.5625 34.761719 41.269531 35.011719 41.148438 35.351562 C 39.082031 40.859375 39.433594 45.175781 39.625 46.804688 C 38.875 46.613281 38.242188 46.207031 37.820312 45.191406 C 37.214844 43.738281 37.082031 41.125 38.054688 37.242188 C 38.152344 36.890625 38.054688 36.511719 37.792969 36.253906 C 37.535156 36 37.15625 35.902344 36.804688 36.007812 C 36.453125 36.113281 36.191406 36.402344 36.113281 36.757812 C 35.519531 39.140625 35.363281 41.046875 35.433594 42.71875 C 34.296875 40.898438 33.117188 37.898438 33.089844 33.167969 C 34.621094 32.695312 36.265625 32.167969 37.761719 31.617188 C 38.710938 31.265625 39.589844 30.914062 40.3125 30.578125 C 41.035156 30.238281 41.585938 29.96875 42.042969 29.515625 C 43.511719 28.042969 43.347656 25.597656 42.226562 23.359375 C 41.925781 22.757812 40.578125 19.972656 38.65625 17.339844 C 37.277344 15.457031 35.597656 13.554688 33.613281 12.613281 C 33.675781 12.542969 33.742188 12.480469 33.804688 12.410156 C 34.527344 11.585938 35.207031 10.578125 35.945312 9.605469 C 37.414062 7.65625 38.996094 6 41.082031 6 Z M 20.984375 6.988281 C 20.433594 6.996094 19.992188 7.449219 20 8 C 20 9.101562 20.523438 10.292969 21.339844 11.519531 C 22.152344 12.75 23.328125 14 25 14 C 26.671875 14 27.847656 12.75 28.660156 11.519531 C 29.476562 10.292969 30 9.101562 30 8 C 30.003906 7.640625 29.816406 7.304688 29.503906 7.121094 C 29.191406 6.941406 28.808594 6.941406 28.496094 7.121094 C 28.183594 7.304688 27.996094 7.640625 28 8 C 28 8.148438 27.628906 9.457031 26.996094 10.417969 C 26.359375 11.375 25.539062 12 25 12 C 24.460938 12 23.640625 11.375 23.007812 10.417969 C 22.371094 9.457031 22 8.148438 22 8 C 22.003906 7.730469 21.898438 7.46875 21.707031 7.277344 C 21.515625 7.085938 21.253906 6.980469 20.984375 6.988281 Z M 33.082031 22.121094 L 35.511719 25.523438 L 33.082031 26.433594 Z M 17 22.121094 L 17 26.429688 L 14.574219 25.519531 Z M 24 23 L 24.832031 23 C 24.941406 23.019531 25.050781 23.019531 25.160156 23 L 26 23 L 26 26 C 25.957031 26 25.917969 26.003906 25.878906 26.007812 C 25.179688 26.019531 24.554688 26.105469 24 26.242188 Z M 25.101562 33.058594 C 25.121094 33.066406 25.144531 33.066406 25.164062 33.070312 C 25.457031 33.105469 25.730469 33.160156 26 33.222656 L 26 44.761719 L 25 46.761719 L 24 44.761719 L 24 33.242188 C 24.34375 33.160156 24.710938 33.101562 25.101562 33.058594 Z M 25.101562 33.058594 "
    />
</svg>
