<svg xmlns="http://www.w3.org/2000/svg" viewBox="0 0 50 50">
    <path
        d="M 14.1875 0 C 13.183594 0 12.273438 0.5625 11.78125 1.4375 L 6.375 11.03125 C 6.09375 11.53125 5.96875 12.113281 6 12.6875 L 7.9375 47.59375 C 4.917969 47.804688 2.90625 48 2.90625 48 C 2.355469 48.050781 1.949219 48.542969 2 49.09375 C 2.050781 49.644531 2.542969 50.050781 3.09375 50 C 3.09375 50 12.402344 49 25 49 C 37.597656 49 46.90625 50 46.90625 50 C 47.457031 50.050781 47.949219 49.644531 48 49.09375 C 48.050781 48.542969 47.644531 48.050781 47.09375 48 C 47.09375 48 45.082031 47.804688 42.0625 47.59375 L 44 12.6875 C 44.03125 12.113281 43.90625 11.53125 43.625 11.03125 L 38.21875 1.4375 C 37.726562 0.566406 36.816406 0 35.8125 0 Z M 14.1875 2 L 35.8125 2 C 36.074219 2 36.308594 2.152344 36.46875 2.4375 L 41.875 12 C 41.964844 12.164062 42.011719 12.363281 42 12.5625 L 40.0625 47.46875 C 36.183594 47.234375 30.984375 47 25 47 C 19.015625 47 13.816406 47.234375 9.9375 47.46875 L 8 12.5625 C 7.988281 12.363281 8.035156 12.164062 8.125 12 L 13.53125 2.40625 C 13.691406 2.125 13.925781 2 14.1875 2 Z M 14.375 16.46875 L 14.375 27.8125 L 16.5 27.8125 L 16.5 23 L 17.65625 23 C 18.101562 23 18.4375 23.121094 18.625 23.375 C 18.816406 23.628906 18.917969 23.992188 18.9375 24.4375 L 18.96875 26.59375 C 18.980469 26.816406 19 27.042969 19.03125 27.25 C 19.058594 27.457031 19.140625 27.652344 19.25 27.8125 L 21.5625 27.8125 L 21.5625 27.6875 C 21.363281 27.570312 21.246094 27.378906 21.1875 27.0625 C 21.148438 26.746094 21.113281 26.257812 21.09375 25.65625 C 21.082031 25.347656 21.074219 25.089844 21.0625 24.84375 C 21.050781 24.59375 21.050781 24.367188 21.03125 24.15625 C 20.972656 23.519531 20.808594 23.035156 20.5625 22.75 C 20.3125 22.464844 19.910156 22.304688 19.375 22.21875 L 19.375 22.1875 C 19.980469 22.050781 20.433594 21.730469 20.71875 21.25 C 21.007812 20.769531 21.15625 20.136719 21.15625 19.375 C 21.15625 18.390625 20.902344 17.667969 20.40625 17.1875 C 19.910156 16.707031 19.207031 16.46875 18.3125 16.46875 Z M 24.8125 16.46875 L 24.8125 27.78125 L 26.96875 27.78125 L 26.96875 16.46875 Z M 30.59375 16.46875 L 30.59375 27.78125 L 32.75 27.78125 L 32.75 23.28125 L 33.90625 23.28125 C 34.414062 23.28125 34.867188 23.199219 35.28125 23.0625 C 35.699219 22.925781 36.054688 22.710938 36.34375 22.4375 C 36.636719 22.164062 36.867188 21.808594 37.03125 21.375 C 37.195312 20.941406 37.28125 20.425781 37.28125 19.84375 C 37.28125 19.421875 37.222656 19 37.125 18.59375 C 37.027344 18.1875 36.851562 17.847656 36.625 17.53125 C 36.394531 17.214844 36.121094 16.945312 35.75 16.75 C 35.378906 16.554688 34.890625 16.46875 34.34375 16.46875 Z M 16.5 18.125 L 17.53125 18.125 C 18.523438 18.125 19 18.671875 19 19.71875 C 19 20.332031 18.871094 20.773438 18.59375 21.03125 C 18.316406 21.292969 17.921875 21.40625 17.40625 21.40625 L 16.5 21.40625 Z M 32.75 18.125 L 33.65625 18.125 C 34.191406 18.125 34.554688 18.296875 34.78125 18.59375 C 35.011719 18.890625 35.125 19.304688 35.125 19.875 C 35.125 20.457031 35.011719 20.914062 34.75 21.1875 C 34.488281 21.460938 34.113281 21.59375 33.6875 21.59375 L 32.75 21.59375 Z M 32.75 18.125 "/>
</svg>
