<svg xmlns="http://www.w3.org/2000/svg" viewBox="0 0 50 50">
    <path
        d="M 7.042969 4 C 6.769531 3.988281 6.492188 4.09375 6.289062 4.289062 C 6.027344 4.558594 5.929688 4.960938 6.050781 5.320312 L 9.050781 14.320312 C 9.109375 14.480469 9.199219 14.628906 9.328125 14.738281 L 30.039062 33.210938 L 31.316406 30.65625 C 31.605469 30.082031 32.082031 29.605469 32.65625 29.316406 L 35.292969 27.996094 L 16.738281 7.332031 C 16.628906 7.199219 16.480469 7.109375 16.320312 7.050781 L 7.320312 4.050781 C 7.230469 4.019531 7.136719 4.003906 7.042969 4 Z M 42.957031 4 C 42.863281 4.003906 42.769531 4.019531 42.679688 4.050781 L 33.679688 7.050781 C 33.519531 7.109375 33.371094 7.199219 33.261719 7.332031 L 26.34375 15.035156 L 32.566406 21.96875 L 40.671875 14.738281 C 40.800781 14.628906 40.890625 14.480469 40.949219 14.320312 L 43.949219 5.320312 C 44.070312 4.960938 43.972656 4.558594 43.710938 4.289062 C 43.507812 4.09375 43.230469 3.988281 42.957031 4 Z M 17.589844 24.785156 L 14.707031 27.996094 L 17.339844 29.316406 C 17.917969 29.605469 18.394531 30.082031 18.683594 30.65625 L 19.960938 33.210938 L 23.496094 30.054688 Z M 8.148438 27.011719 C 7.839844 26.964844 7.523438 27.0625 7.292969 27.292969 L 6.292969 28.292969 C 5.902344 28.683594 5.902344 29.316406 6.292969 29.707031 L 18.292969 41.707031 C 18.488281 41.902344 18.746094 42 19 42 C 19.253906 42 19.511719 41.902344 19.707031 41.703125 L 20.707031 40.703125 C 21.011719 40.402344 21.085938 39.9375 20.894531 39.550781 L 16.894531 31.550781 C 16.796875 31.359375 16.640625 31.203125 16.449219 31.105469 L 8.449219 27.105469 C 8.351562 27.058594 8.25 27.027344 8.148438 27.011719 Z M 41.851562 27.011719 C 41.75 27.027344 41.648438 27.058594 41.550781 27.105469 L 33.550781 31.105469 C 33.359375 31.203125 33.203125 31.359375 33.105469 31.550781 L 29.105469 39.550781 C 28.914062 39.9375 28.988281 40.402344 29.292969 40.707031 L 30.292969 41.707031 C 30.488281 41.902344 30.742188 42 31 42 C 31.257812 42 31.511719 41.902344 31.707031 41.707031 L 43.707031 29.707031 C 44.097656 29.316406 44.097656 28.6875 43.707031 28.292969 L 42.707031 27.292969 C 42.476562 27.066406 42.160156 26.964844 41.851562 27.011719 Z M 8.882812 35.121094 L 5.339844 40.019531 C 5.226562 40.007812 5.113281 40 5 40 C 3.34375 40 2 41.34375 2 43 C 2 44.65625 3.34375 46 5 46 C 6.65625 46 8 44.65625 8 43 C 8 42.914062 7.996094 42.828125 7.988281 42.746094 L 12.902344 39.144531 Z M 41.121094 35.121094 L 37.097656 39.144531 L 42.015625 42.746094 C 42.003906 42.832031 42 42.914062 42 43 C 42 44.65625 43.34375 46 45 46 C 46.65625 46 48 44.65625 48 43 C 48 41.34375 46.65625 40 45 40 C 44.886719 40 44.777344 40.007812 44.664062 40.023438 Z M 41.121094 35.121094 "/>
</svg>
