<?xml version="1.0"?>
<svg xmlns="http://www.w3.org/2000/svg" height="512px" viewBox="0 -78 502 502" width="512px" class=""><g><path d="m496 72.210938h-140.164062c-23.542969.058593-46.039063 9.726562-62.277344 26.769531-8.460938-16.070313-24.921875-26.335938-43.074219-26.871094-18.15625-.53125-35.1875 8.75-44.582031 24.296875-16-15.539062-37.433594-24.21875-59.738282-24.195312h-140.164062c-3.3125 0-6 2.6875-6 6 .03125 27.800781 22.558594 50.328124 50.359375 50.359374h11.429687c3.066407 25.292969 24.511719 44.324219 49.988282 44.359376h5.460937c2.949219 24.320312 22.949219 43.007812 47.417969 44.292968-5.328125 12.066406-8.078125 25.113282-8.082031 38.300782 0 3.3125 2.6875 6 6 6h4.902343c1.964844 10.957031 9.003907 20.332031 18.972657 25.28125l-7.597657 40.515624c-.554687 2.949219 1.152344 5.851563 4 6.800782 44.4375 14.710937 92.433594 14.710937 136.871094 0 2.847656-.949219 4.554688-3.851563 4-6.800782l-7.5625-40.34375c10.15625-4.890624 17.347656-14.359374 19.339844-25.457031h4.515625c3.3125 0 6-2.683593 6-6-.015625-13.210937-2.800781-26.273437-8.1875-38.335937 24.269531-1.511719 44.003906-20.121094 46.933594-44.257813h5.460937c25.476563-.035156 46.925782-19.066406 49.988282-44.359375h11.429687c27.800781-.03125 50.324219-22.558594 50.359375-50.355468 0-3.3125-2.6875-6-6-6zm-162.207031 177.308593h-24.648438l-11.75-62.671875c21.0625 14.238282 34.46875 37.320313 36.398438 62.671875zm-84.792969-165.433593c16.722656.003906 31.511719 10.847656 36.546875 26.796874 5.035156 15.945313-.847656 33.316407-14.535156 42.925782s-32.023438 9.234375-45.308594-.917969c-13.289063-10.15625-18.460937-27.75-12.785156-43.480469.136719-.285156.246093-.582031.332031-.886718 5.78125-14.703126 19.953125-24.386719 35.75-24.4375zm-55.554688 165.433593h-24.652343c1.835937-25.390625 15.265625-48.523437 36.40625-62.707031zm-64.101562-76.597656h44.542969c3.3125 0 6-2.6875 6-6 0-3.316406-2.6875-6-6-6h-62.101563c-18.859375-.027344-34.914062-13.738281-37.886718-32.359375h38.570312c3.3125 0 6-2.6875 6-6s-2.6875-6-6-6h-62.101562c-18.859376-.019531-34.917969-13.726562-37.898438-32.351562h133.699219c20.75-.015626 40.542969 8.714843 54.515625 24.054687-4.84375 16.488281-.925782 34.308594 10.386718 47.246094l-2.9375 15.679687c-15.570312 7.957032-28.625 20.082032-37.707031 35.019532-.957031-.605469-2.066406-.929688-3.195312-.929688-18.859375-.023438-34.914063-13.734375-37.886719-32.355469zm50.433594 88.597656h11.421875l-2.398438 12.773438c-4.402343-3.078125-7.59375-7.59375-9.027343-12.773438zm11.855468 62.800781 29.9375-159.675781c18.199219 11.875 41.96875 10.695313 58.902344-2.925781l30.488282 162.601562c-38.90625 11.777344-80.425782 11.777344-119.332032 0zm122.199219-49.800781-2.4375-13h11.804688c-1.46875 5.3125-4.792969 9.925781-9.367188 13zm137.8125-157.949219h-62.101562c-3.3125 0-6 2.683594-6 6 0 3.3125 2.6875 6 6 6h38.570312c-2.976562 18.621094-19.027343 32.332032-37.886719 32.359376h-62.101562c-3.3125 0-6 2.683593-6 6 0 3.3125 2.6875 6 6 6h44.539062c-2.972656 18.621093-19.023437 32.332031-37.886718 32.359374-.988282-.003906-1.960938.242188-2.835938.710938-9.070312-14.8125-22.035156-26.847656-37.476562-34.800781l-3.832032-20.4375c5.699219-8.339844 8.746094-18.210938 8.734376-28.3125 0-3.5625-.375-7.117188-1.125-10.597657 14.050781-17.429687 35.21875-27.582031 57.601562-27.636718h133.699219c-2.976563 18.625-19.039063 32.335937-37.902344 32.351562zm0 0" data-original="#000000" class="active-path" fill="#000000"/><path d="m193.101562 22.636719c0 15.550781 28.976563 22.632812 55.898438 22.632812s55.898438-7.082031 55.898438-22.632812c0-15.554688-28.972657-22.636719-55.898438-22.636719s-55.898438 7.082031-55.898438 22.636719zm99.796876 0c-.859376 2.984375-15.410157 10.632812-43.890626 10.632812-28.484374 0-43.035156-7.648437-43.902343-10.632812.863281-2.988281 15.414062-10.636719 43.902343-10.636719 28.484376 0 43.027344 7.648438 43.890626 10.636719zm0 0" data-original="#000000" class="active-path" fill="#000000"/></g> </svg>
