<?xml version="1.0"?>
<svg xmlns="http://www.w3.org/2000/svg" id="Layer_1" height="512px" viewBox="0 0 128 128" width="512px" data-name="Layer 1" class=""><g><path d="m76.651 57.432a8.363 8.363 0 0 0 7.431-9.167 7.786 7.786 0 0 0 -3.325-5.36 8.877 8.877 0 0 0 -6.291-1.48 8.4 8.4 0 0 0 -7.476 8.622c-.334-.668-.611-1.183-.767-1.465a1.75 1.75 0 0 0 -3.063 0c-.18.327-.524.968-.929 1.8a7.786 7.786 0 0 0 -1.785-5.842 9.012 9.012 0 0 0 -11.955-1.64 7.782 7.782 0 0 0 -3.325 5.36 8.364 8.364 0 0 0 7.434 9.173 9.257 9.257 0 0 0 1.243.084 8.648 8.648 0 0 0 6.653-3.05c-.881 2.471-1.506 5.2-.985 7.182a3.019 3.019 0 0 0 2.247 2.459 2.743 2.743 0 0 0 .564.06 4 4 0 0 0 2.373-.94 3.646 3.646 0 0 0 2.938.881 3.017 3.017 0 0 0 2.246-2.459c.5-1.916-.062-4.524-.894-6.926a8.673 8.673 0 0 0 6.428 2.794 9.109 9.109 0 0 0 1.238-.086zm-17.906-7.314a5.132 5.132 0 0 1 -10.111-1.381 4.319 4.319 0 0 1 1.866-2.964 5.27 5.27 0 0 1 3.033-.935 5.693 5.693 0 0 1 .78.054 5.356 5.356 0 0 1 3.437 1.87 4.325 4.325 0 0 1 .995 3.356zm7.312 9.563a1.811 1.811 0 0 0 -2.73 0 5.281 5.281 0 0 1 -.513.54c-.091-1.608.8-4.334 1.878-6.812 1.078 2.477 1.969 5.2 1.878 6.811a5.384 5.384 0 0 1 -.513-.539zm4.443-9.563a4.867 4.867 0 0 1 4.437-5.227 5.837 5.837 0 0 1 .779-.053 5.267 5.267 0 0 1 3.032.935 4.314 4.314 0 0 1 1.862 2.964 5.132 5.132 0 0 1 -10.11 1.381z" data-original="#000000" class="active-path" fill="#000000"/><path d="m106 65.641 1.7-1.726a4.917 4.917 0 1 0 -7.012-6.9l-.6.61c-.161-.2-.308-.394-.471-.594a4.852 4.852 0 0 0 -1.951-1.409c.2-5.129-.644-11.833-1.846-20.524-3.329-24.07-31.237-24.348-31.508-24.348-1.061.008-26.051-.051-38.358 8.227a1.75 1.75 0 0 0 1.2 3.188c.049-.007 4.527-.538 11.091 1.7a38.878 38.878 0 0 0 -7.584 18.79c-1.605 12.4.854 15.722 4.259 20.313a40.851 40.851 0 0 1 5.342 8.989 34.825 34.825 0 0 0 -29.579 34.3v9.25a1.75 1.75 0 0 0 3.5 0v-9.25a31.3 31.3 0 0 1 27.658-30.984 39.417 39.417 0 0 0 22.135 19.085l-19.583 19.915a1.75 1.75 0 1 0 2.5 2.453l41.761-42.47q1.093.764 2.3 1.7l-37.679 38.317a1.75 1.75 0 1 0 2.5 2.453l37.878-38.526c5.907 5.192 13.055 13.432 19.331 26.17a1.747 1.747 0 0 0 .656.717c.014.387.04.775.04 1.162v9.25a1.75 1.75 0 0 0 3.5 0v-9.25a34.971 34.971 0 0 0 -.3-4.524c.999-5.107 1.462-17.658-10.88-36.084zm-2.818-6.166a1.416 1.416 0 1 1 2.02 1.986l-1.232 1.252c-.546-.758-1.119-1.527-1.708-2.3zm-59.676 11.167a44.379 44.379 0 0 0 -5.777-9.762c-3.133-4.225-5.023-6.774-3.6-17.779a34.986 34.986 0 0 1 8.33-18.854 1.75 1.75 0 0 0 -.643-2.778 38.771 38.771 0 0 0 -8.331-2.419c12.375-4.83 30.591-4.79 30.817-4.8.251 0 25.135.244 28.053 21.333 1.183 8.555 2.009 15.119 1.813 19.957a4.892 4.892 0 0 0 -1.814 1.16l-4.026 4.1a15.7 15.7 0 0 0 .272-8.98 11.439 11.439 0 0 1 .141-5.882c3.213-11.182-.778-19.9-11.236-24.538a31.811 31.811 0 0 0 -25.762 0c-10.459 4.643-14.45 13.357-11.237 24.538a11.435 11.435 0 0 1 .141 5.882c-.946 3.841-1.884 13.014 9.16 16.877l1.393 5.084a1.75 1.75 0 0 0 1.688 1.288h23.473a1.749 1.749 0 0 0 1.688-1.288l1.391-5.081a18.464 18.464 0 0 0 3.87-1.851 4.823 4.823 0 0 0 .5 3.643l-.966.631c-8.126 5.3-18.041 11.766-17.66 19.961a36 36 0 0 1 -21.678-20.442zm25.324 18.779c.982-5.061 7.478-9.794 13.629-13.86zm2.123-21.8a1.751 1.751 0 0 0 -2.053 1.389l-.492 2.56h-2.034v-2.23a1.75 1.75 0 0 0 -3.5 0v2.229h-2.039l-.493-2.561a1.75 1.75 0 1 0 -3.437.662l.365 1.9h-3.048l-1.288-4.7a1.75 1.75 0 0 0 -1.178-1.212c-6.735-2.053-9.33-6.425-7.711-13a14.946 14.946 0 0 0 -.175-7.687c-2.748-9.562.379-16.416 9.292-20.372a28.3 28.3 0 0 1 22.922 0c8.916 3.957 12.041 10.811 9.294 20.373a14.951 14.951 0 0 0 -.176 7.687c1.619 6.57-.976 10.942-7.711 13a1.748 1.748 0 0 0 -1.178 1.212l-1.288 4.7h-3.048l.365-1.9a1.75 1.75 0 0 0 -1.389-2.05zm18.447 2.917-.047-.03c-.71-.467-1.386-.892-2-1.253a1.4 1.4 0 0 1 -.685-1.028 1.347 1.347 0 0 1 .384-1.139l7.8-7.933a1.366 1.366 0 0 1 .987-.412h.064a1.362 1.362 0 0 1 1 .5c15.366 18.84 17.2 32.37 16.837 39.017-8.523-15.41-18.154-23.645-24.34-27.722z" data-original="#000000" class="active-path" fill="#000000"/><path d="m31.88 91.065a1.75 1.75 0 0 0 -3.08-1.665c-.1.178-2.357 4.4 2.447 9.768 3.626 4.051 4.28 11.214 1.4 15.329a1.75 1.75 0 0 0 2.867 2.008c3.86-5.515 3.116-14.339-1.659-19.671-3.013-3.369-2.047-5.614-1.975-5.769z" data-original="#000000" class="active-path" fill="#000000"/><path d="m94.791 88.816a1.75 1.75 0 0 0 -.43 2.438c2.881 4.115 2.228 11.278-1.4 15.329-4.8 5.366-2.546 9.59-2.447 9.768a1.786 1.786 0 0 0 1.556.915 1.742 1.742 0 0 0 1.53-2.576c-.045-.095-1.085-2.355 1.975-5.773 4.774-5.333 5.518-14.157 1.658-19.671a1.75 1.75 0 0 0 -2.442-.43z" data-original="#000000" class="active-path" fill="#000000"/></g> </svg>
